<?xml version="1.0" encoding="UTF-8"?>
<svg id="Layer_2" xmlns="http://www.w3.org/2000/svg" viewBox="0 0 1099.23 1017.33">
  <defs>
    <style>
      .cls-1 {
        fill: #fff;
      }

      .cls-2 {
        fill: #231f20;
        stroke: #231f20;
        stroke-miterlimit: 10;
      }
    </style>
  </defs>
  <path class="cls-2" d="M392.91,508.21l38.19-2.37c1.04-.06,2.08-.07,3.12-.01l72.04,3.84c.64.03,1.28.04,1.93.01l33.29-1.31c.89-.03,1.62.69,1.58,1.58l-2.5,68.41c-.02.48,0,.97.04,1.45l2.32,26.56c.11,1.24-.89,2.29-2.13,2.25l-72.51-2.58c-1.07-.04-2.13,0-3.19.12l-44.6,4.88c-.84.09-1.69.1-2.53.03l-24.86-2.21c-.92-.08-1.6-.89-1.53-1.82l4.24-50.15c.13-1.49.12-2.99-.03-4.48l-4.2-42.61c-.08-.81.53-1.53,1.34-1.58Z"/>
  <path class="cls-2" d="M550.59,508.19l17.55-.82c.59-.03,1.17-.03,1.76,0l86.19,3.12c.33.01.66,0,.98,0l41.06-2.09c.93-.05,1.72.66,1.77,1.59l2.28,39.01c.04.7.05,1.41.02,2.11l-2.3,55.43c-.05,1.22-1.04,2.2-2.26,2.23l-45.47,1.73c-.11,0-23.25,1.55-23.36,1.53l-48.15-5.61c-.14-.02-.29-.02-.44,0l-29.48,2.1c-1.4.1-2.57-1.05-2.49-2.46l3.53-63.5c.04-.78.02-1.56-.07-2.33l-3.33-29.44c-.15-1.34.86-2.53,2.21-2.59Z"/>
  <path class="cls-2" d="M548,619.98c.06-1.25,1.09-2.24,2.35-2.24h103.46c.14,0,.28,0,.41.02l43.23,4.39c1.34.14,2.36,1.27,2.36,2.61v29.05l2.4,63.92c0,.11,0,.22,0,.33l-2.23,51.63c-.09,2.18-.44,3.2-2.63,3.2l-41.05-1.07-77.27,3.74-27.08-1.96c-2.16,0-3.54-.14-3.67-2.29l1.42-52.23v-.43s-3.32-62.58-3.32-62.58l1.63-36.08Z"/>
  <path class="cls-2" d="M393.28,617.89l29.18,1.79c.85.05,1.7.02,2.54-.09l42.83-5.82c.85-.12,1.72-.15,2.58-.1l69.82,3.95c1.25.07,2.2,1.17,2.07,2.42l-2.57,25.37c-.07.69-.08,1.39-.03,2.09l4.84,68.29c.07.98.09,1.96.05,2.93l-1.98,52.82c-.04,1.16-.98,2.08-2.13,2.12l-60.26,1.85c-1.04.03-2.09.01-3.13-.06l-55.36-3.72c-1.06-.07-2.13-.07-3.19,0l-25.47,1.71c-1.23.08-2.28-.85-2.35-2.08l-1.66-30.33c-.04-.72-.03-1.45.02-2.17l4.45-61.48c.07-.94.08-1.87.03-2.81l-2.61-54.39c-.06-1.31,1.03-2.39,2.34-2.31Z"/>
  <path class="cls-2" d="M398.05,360.9l51.72,3.97s.06,0,.09,0l54.2-4.88c2.24-.2,4.48-.26,6.73-.17l97.53,3.82c1.01.04,2.01.04,3.02,0l87.85-3.23c.33-.01.61.26.59.59l-1.42,35.73-1.76,44.1c-.05,1.31.02,2.62.22,3.92.38,2.48.94,5.3,1.13,6.83l5.7,46.69c.12,2-1.45,3.7-3.46,3.73l-85.26,1.41-114.52-3.81-85.59-.29c-2.17-.02-4.35.11-6.5.4l-14.1,1.91c-1.48.2-2.81-.95-2.81-2.45l6.59-75.8s0-.07,0-.11l-5.89-56.28c-.36-3.44,2.49-6.37,5.93-6.1Z"/>
  <path class="cls-2" d="M393.64,286.36l22.06,1.31c1.14.07,2.28.09,3.41.07l204.37-4.18c.32,0,.63,0,.95,0l72.18,2.55c1.77.06,3.15,1.55,3.08,3.31l-1.58,43.18c-.03.73,0,1.46.05,2.18l1.5,18.02c.08.96-.69,1.77-1.65,1.74l-92.41-2.67-154.64,2.17-56.87.52c-1.46.01-2.63-1.19-2.57-2.65l1.42-37.38c.02-.62.02-1.24-.02-1.85l-1.37-24.25c-.07-1.18.91-2.16,2.09-2.09Z"/>
  <path class="cls-1" d="M576.64,319.07c0,5.49-1.76,10.52-9.08,13.64-5.25,2.24-14.8,3.43-21.96,3.43-8.24,0-19.34-.92-24.9-3.81-6-3.11-6.14-8.37-6.14-13.27,0-5.34,2.91-8.91,9.89-12.04,5.34-2.4,13.71-5.04,21.15-5.04s19.26.98,24.58,3.35c7.04,3.13,6.45,8.36,6.45,13.72Z"/>
  <path class="cls-1" d="M586.14,431.61c0,9.63,1.38,19.76-4.53,26.46-6.97,7.91-22.14,11.58-33.51,11.58-12.83,0-23.35-3.61-30.24-13.35-4.39-6.2-7.8-16.51-7.8-24.69,0-10.5-2.38-19.07,4.5-25.96s23.03-12.08,33.54-12.08c11.37,0,24.42,2.4,31.39,10.31,5.9,6.7,6.65,18.09,6.65,27.73Z"/>
</svg>