<?xml version="1.0" encoding="UTF-8"?>
<svg id="Layer_1" xmlns="http://www.w3.org/2000/svg" viewBox="0 0 128.41 182.86">
  <defs>
    <style>
      .cls-1, .cls-2 {
        fill: none;
      }

      .cls-1, .cls-2, .cls-3 {
        stroke: #231f20;
        stroke-miterlimit: 10;
      }

      .cls-4, .cls-3 {
        fill: #231f20;
      }

      .cls-2 {
        stroke-width: .75px;
      }
    </style>
  </defs>
  <path class="cls-1" d="M5.15,5.01l36.54-.06,43.85.04,37.75.02v168.02s-.12,2.28-.51,2.88-2.16,1.52-3.88,1.63c-2.15.13-105.2,1.33-107.17.65l-.12-.02c-.68.02-4.75.13-5.25-.25-.91-.68-1.27-.82-1.2-3.75.07-2.93,0-10.46,0-10.46V5.01Z"/>
  <path class="cls-1" d="M35.36,173.95c1.14-1.84,2.31-3.28,3.49-4.57,2.88-3.12,5.25-5.18,6.9-6.48.87-.69,1.71-1.31,2.8-1.94,2.96-1.72,5.91-2.47,9.69-2.94,5.64-.71,9.52-1.2,14.72-.14,2.72.56,12.55,2.71,18.88,11.27,1.15,1.56,2.43,3.61,2.93,4.64"/>
  <path class="cls-1" d="M9.47,173.49c36.85,1.33,73.34,1.21,109.49-.31.1,0,.45-.02.55-.02"/>
  <path class="cls-2" d="M68.89,166.95l.04-4.3c0-.06-.06-.09-.11-.05l-2.75,2.17h-.25s-.59,0-.59,0h-.23s-2.71-2.33-2.71-2.33c-.04-.03-.09,0-.09.04v4.49"/>
  <path class="cls-2" d="M61.03,166.95v-6.68c0-.06.06-.09.11-.06l4.38,2.75,4.31-2.7c.08-.05.18,0,.18.1v6.6"/>
  <line class="cls-2" x1="60.62" y1="167.92" x2="62.61" y2="167.92"/>
  <line class="cls-2" x1="64.6" y1="167.92" x2="66.53" y2="167.92"/>
  <line class="cls-2" x1="68.45" y1="167.92" x2="70.4" y2="167.92"/>
  <line class="cls-3" x1="9.47" y1="8.18" x2="119.51" y2="8.18"/>
  <path class="cls-4" d="M60.79,169.74q.35-.02.42.31c.02.11.05.22.11.34.03-.15.07-.3.1-.45.02-.16.09-.24.26-.2.04,0,.08,0,.13,0v.96h-.18v-.68s-.02,0-.03,0c-.05.19-.09.38-.15.56-.02.05-.07.11-.13.13-.1.03-.12-.04-.14-.13-.04-.18-.09-.35-.16-.53v.65h-.22v-.95Z"/>
  <path class="cls-4" d="M64.97,169.75q.3-.04.42.21c.05.11.11.21.17.32,0,0,.01.01.03.03v-.56h.23v.94c-.17.06-.27,0-.34-.17-.08-.19-.19-.37-.32-.6v.77h-.2v-.95Z"/>
  <path class="cls-4" d="M63.47,170.28c.07.14.13.27.2.41-.18.07-.25-.01-.31-.16-.04-.1-.05-.28-.25-.21v.37h-.23v-.96c.16,0,.33-.02.49,0,.12.02.24.06.27.22.03.15-.04.24-.16.31ZM63.1,170.17c.12-.04.22-.07.31-.11,0,0,0-.08,0-.09-.09-.04-.19-.07-.31-.1v.3Z"/>
  <path class="cls-4" d="M68.22,169.74c.27,0,.55-.05.72.2.13.18.12.39,0,.58-.17.28-.46.18-.72.19v-.97ZM68.42,170.53c.13,0,.26.04.33-.11.07-.14.09-.3-.01-.41-.07-.07-.2-.09-.32-.14v.67Z"/>
  <path class="cls-4" d="M69.51,170.23c0-.34.17-.51.51-.5.18,0,.27.13.34.28.11.25-.01.61-.24.69-.33.12-.63-.11-.6-.47ZM69.72,170.22l-.04.03c.07.11.12.25.22.32.13.08.24-.04.29-.28.03-.16-.09-.39-.21-.41-.13-.02-.25.14-.25.34Z"/>
  <path class="cls-4" d="M68.05,169.75c0,.25,0,.48,0,.71,0,.17-.13.22-.27.26-.23.07-.45-.07-.49-.31,0-.05,0-.1,0-.15,0-.17,0-.34,0-.52h.23c0,.2,0,.4,0,.6,0,.12.03.23.17.23.13,0,.16-.11.16-.23,0-.19,0-.39,0-.59h.2Z"/>
  <path class="cls-4" d="M62.8,170.69c-.22.02-.2.07-.29-.22-.07,0-.14-.01-.21,0-.05.01-.11.04-.13.08-.07.15-.07.15-.26.13.1-.32.19-.63.29-.95.06,0,.11,0,.16,0,.11-.01.15.03.18.14.08.27.17.54.26.82ZM62.47,170.29c-.04-.12-.07-.24-.12-.39-.04.16-.07.27-.1.39h.22Z"/>
  <path class="cls-4" d="M67.22,170.69c-.14.04-.24.03-.26-.13,0-.03-.08-.07-.13-.08-.06-.01-.13,0-.21,0-.04.13-.06.3-.29.21.09-.3.17-.6.29-.9.02-.05.18-.05.29-.08.11.34.21.66.31.98ZM66.79,169.95s-.02,0-.03,0c-.03.11-.06.22-.1.34h.22c-.03-.12-.06-.23-.09-.34Z"/>
  <path class="cls-4" d="M68.48,171.5v.49c-.05,0-.1,0-.16.01v-.8c.34-.07.31.31.52.43v-.42c.06,0,.11,0,.17-.01v.84c-.09-.06-.16-.08-.21-.14-.1-.13-.19-.28-.29-.41-.01,0-.02,0-.03.01Z"/>
  <path class="cls-4" d="M64.5,171.22q.22-.02.52.43v-.43h.17v.78c-.19.04-.2-.12-.27-.22-.08-.1-.14-.21-.24-.31v.52h-.17v-.78Z"/>
  <path class="cls-4" d="M65.77,172.01v-.8c.22.01.45-.08.63.14.09.12.11.33.02.47-.16.23-.4.18-.65.2ZM65.95,171.89c.13-.06.26-.08.31-.15.05-.07.05-.23,0-.3-.05-.07-.19-.08-.31-.13v.58Z"/>
  <path class="cls-4" d="M63.22,171.59c0-.24.16-.43.37-.41.2.02.38.13.37.43,0,.25-.15.4-.38.4-.22,0-.36-.17-.36-.42ZM63.39,171.59c0,.19.07.29.2.29.12,0,.2-.11.2-.27,0-.15-.1-.29-.21-.29-.12,0-.19.1-.19.28Z"/>
  <path class="cls-4" d="M67.74,171.61c0,.24-.14.4-.36.4-.24,0-.38-.15-.38-.42,0-.24.15-.41.37-.42.22,0,.37.17.37.43ZM67.57,171.6s.03-.02.04-.02c-.05-.08-.09-.18-.16-.23-.04-.03-.16,0-.21.05-.09.07-.1.31-.02.4.05.05.14.08.2.07.13-.03.16-.14.15-.26Z"/>
  <path class="cls-4" d="M64.49,169.74v.15h-.25v.8h-.24v-.79h-.26c0-.06,0-.1-.01-.16h.76Z"/>
  <path class="cls-4" d="M69.37,170.7h-.21v-.96h.21v.96Z"/>
  <path class="cls-4" d="M62.13,172.01v-.79h.18v.62h.37c.04.11.04.18-.1.17-.14,0-.29,0-.45,0Z"/>
  <path class="cls-4" d="M64.79,170.7h-.18v-.96h.18v.96Z"/>
</svg>