<?xml version="1.0" encoding="UTF-8"?>
<svg id="Layer_1" xmlns="http://www.w3.org/2000/svg" viewBox="0 0 132.65 137.74">
  <defs>
    <style>
      .cls-1, .cls-2 {
        fill: none;
        stroke: #231f20;
        stroke-miterlimit: 10;
      }

      .cls-2 {
        stroke-width: .5px;
      }
    </style>
  </defs>
  <line class="cls-1" x1="5.2" y1="6.33" x2="127.53" y2="6.33"/>
  <path class="cls-1" d="M5.66,5.92v121.95c-.02.27,0,.65,0,1.09,0,0-.29,1.83,1.04,2.59,1.2.69,2.91.35,4.83.43h109.93c1.88-.08,3.54.26,4.72-.43,1.31-.77,1.02-2.59,1.02-2.59,0-.44.02-.82,0-1.09V5.92"/>
  <polyline class="cls-1" points="74.13 126.32 123.01 126.32 123.77 126.32"/>
  <line class="cls-1" x1="9.14" y1="126.32" x2="62.92" y2="126.32"/>
  <rect class="cls-1" x="63.13" y="116.57" width="10.7" height="11.14"/>
  <path class="cls-2" d="M70.88,124.09l.03-3.07s-.05-.06-.08-.04l-1.97,1.55h-.18s-.42,0-.42,0h-.16s-1.93-1.67-1.93-1.67c-.03-.02-.07,0-.07.03v3.21"/>
  <path class="cls-2" d="M65.27,124.09v-4.77s.04-.06.08-.04l3.13,1.96,3.08-1.93c.05-.03.13,0,.13.07v4.72"/>
  <line class="cls-2" x1="64.98" y1="124.79" x2="66.4" y2="124.79"/>
  <line class="cls-2" x1="67.82" y1="124.79" x2="69.2" y2="124.79"/>
  <line class="cls-2" x1="70.57" y1="124.79" x2="71.96" y2="124.79"/>
  <line class="cls-1" x1="10.28" y1="11.22" x2="123.62" y2="11.22"/>
</svg>