<?xml version="1.0" encoding="UTF-8"?>
<svg id="Layer_1" xmlns="http://www.w3.org/2000/svg" viewBox="0 0 157.36 217.12">
  <defs>
    <style>
      .cls-1 {
        fill: none;
        stroke: #231f20;
        stroke-miterlimit: 10;
      }

      .cls-2 {
        fill: #231f20;
      }

      .cls-3 {
        fill: #fff;
      }
    </style>
  </defs>
  <polygon class="cls-1" points="4.29 109.7 3.84 213.24 152.64 213.24 152.82 109.7 4.29 109.7"/>
  <line class="cls-1" x1="6.52" y1="112.88" x2="149.77" y2="112.58"/>
  <line class="cls-1" x1="6.52" y1="210.23" x2="149.77" y2="209.92"/>
  <g>
    <path class="cls-2" d="M136.82,205.11l.31-2.3h1.97s.09.05.08.1l-.23,2.21-.47-.02.24-1.87h-1.16s-.24,1.88-.24,1.88h-.49Z"/>
    <path class="cls-2" d="M139.76,205.12h1.95s.08-.03.08-.07l.29-2.08s-.03-.09-.08-.09h-1.94s-.08.03-.08.07l-.3,2.08s.03.09.08.09Z"/>
    <path class="cls-3" d="M140.5,203.33h.97s.08.04.08.09l-.21,1.22s-.04.06-.08.06h-.97s-.08-.04-.08-.09l.21-1.22s.04-.06.08-.06Z"/>
    <polygon class="cls-2" points="142.67 202.88 142.67 205.13 143.52 205.13 144.78 202.91 144.12 202.91 143.14 204.67 143.17 202.88 142.67 202.88"/>
    <path class="cls-2" d="M145.36,202.88l-.07.5h1.77l-.14.38h-1.52s-.08.03-.08.07l-.2,1.24c0,.05.03.1.08.1h2.02l.3-2.18s-.03-.09-.08-.09h-2.09Z"/>
    <polygon class="cls-3" points="145.8 204.24 145.69 204.67 146.75 204.67 146.86 204.24 145.8 204.24"/>
  </g>
  <polygon class="cls-1" points="4.63 4.35 4.18 107.88 152.98 107.88 153.16 4.35 4.63 4.35"/>
  <line class="cls-1" x1="6.86" y1="7.53" x2="150.11" y2="7.22"/>
  <line class="cls-1" x1="6.86" y1="104.87" x2="150.11" y2="104.57"/>
  <g>
    <path class="cls-2" d="M137.64,99.76l.31-2.3h1.97s.09.05.08.1l-.23,2.21-.47-.02.24-1.87h-1.16s-.24,1.88-.24,1.88h-.49Z"/>
    <path class="cls-2" d="M140.59,99.77h1.95s.08-.03.08-.07l.29-2.08s-.03-.09-.08-.09h-1.94s-.08.03-.08.07l-.3,2.08s.03.09.08.09Z"/>
    <path class="cls-3" d="M141.33,97.98h.97s.08.04.08.09l-.21,1.22s-.04.06-.08.06h-.97s-.08-.04-.08-.09l.21-1.22s.04-.06.08-.06Z"/>
    <polygon class="cls-2" points="143.49 97.53 143.49 99.77 144.35 99.77 145.6 97.56 144.95 97.55 143.97 99.32 143.99 97.53 143.49 97.53"/>
    <path class="cls-2" d="M146.19,97.53l-.07.5h1.77l-.14.38h-1.52s-.08.03-.08.07l-.2,1.24c0,.05.03.1.08.1h2.02l.3-2.18s-.03-.09-.08-.09h-2.09Z"/>
    <polygon class="cls-3" points="146.63 98.88 146.52 99.31 147.58 99.31 147.69 98.88 146.63 98.88"/>
  </g>
</svg>