<?xml version="1.0" encoding="UTF-8"?>
<svg id="Layer_1" xmlns="http://www.w3.org/2000/svg" viewBox="0 0 159.33 437.53">
  <defs>
    <style>
      .cls-1, .cls-2 {
        fill: none;
        stroke: #231f20;
        stroke-miterlimit: 10;
      }

      .cls-2 {
        stroke-width: .5px;
      }
    </style>
  </defs>
  <polyline class="cls-1" points="155.22 18.8 155.22 5.78 153.42 4.68 4.51 4.68 3.66 5.7 3.66 18.46"/>
  <line class="cls-1" x1="3.15" y1="18.46" x2="155.48" y2="18.46"/>
  <line class="cls-1" x1="3.78" y1="18.46" x2="13.06" y2="23.96"/>
  <line class="cls-1" x1="155.19" y1="18.54" x2="148.81" y2="24.04"/>
  <line class="cls-1" x1="76.27" y1="18.57" x2="76.66" y2="24.03"/>
  <line class="cls-1" x1="85.3" y1="18.8" x2="85.06" y2="23.78"/>
  <path class="cls-1" d="M109.53,152.77v-66.39c0-.11.11-.75,0-.72-1.21.29-7.58.54-9.67.41"/>
  <path class="cls-1" d="M51.51,152.93l-1.48-66.34c0-.12-.12-1.14,0-1.12,3.48.51,8.92.42,8.92.42"/>
  <line class="cls-2" x1="75.79" y1="170.66" x2="85.06" y2="170.64"/>
  <line class="cls-2" x1="75.93" y1="186.24" x2="85.2" y2="186.22"/>
  <line class="cls-2" x1="75.79" y1="190.62" x2="85.06" y2="190.6"/>
  <line class="cls-2" x1="75.73" y1="205.87" x2="85.01" y2="205.85"/>
  <line class="cls-2" x1="75.83" y1="240.82" x2="85.11" y2="240.8"/>
  <line class="cls-2" x1="75.97" y1="256.96" x2="85.25" y2="256.94"/>
  <line class="cls-2" x1="75.83" y1="261.49" x2="85.11" y2="261.47"/>
  <line class="cls-2" x1="75.78" y1="277.29" x2="85.05" y2="277.27"/>
  <line class="cls-1" x1="75.84" y1="224.94" x2="75.69" y2="294.05"/>
  <line class="cls-1" x1="85.39" y1="224.72" x2="85.68" y2="294.23"/>
  <line class="cls-2" x1="75.71" y1="100.91" x2="84.98" y2="100.89"/>
  <line class="cls-2" x1="75.85" y1="116.49" x2="85.12" y2="116.47"/>
  <line class="cls-2" x1="75.71" y1="120.87" x2="84.98" y2="120.85"/>
  <line class="cls-2" x1="75.66" y1="136.12" x2="84.93" y2="136.1"/>
  <line class="cls-1" x1="75.54" y1="85.57" x2="75.74" y2="152.31"/>
  <line class="cls-1" x1="85.53" y1="86.3" x2="85.29" y2="152.48"/>
  <line class="cls-2" x1="75.87" y1="312" x2="85.14" y2="311.98"/>
  <line class="cls-2" x1="76.01" y1="327.7" x2="85.28" y2="327.68"/>
  <line class="cls-2" x1="75.87" y1="332.11" x2="85.14" y2="332.09"/>
  <line class="cls-2" x1="75.82" y1="347.48" x2="85.09" y2="347.46"/>
  <line class="cls-1" x1="75.88" y1="296.54" x2="75.73" y2="363.78"/>
  <line class="cls-1" x1="85.43" y1="296.33" x2="85.72" y2="363.96"/>
  <line class="cls-2" x1="75.65" y1="382.4" x2="84.93" y2="382.38"/>
  <line class="cls-2" x1="75.79" y1="397.22" x2="85.07" y2="397.2"/>
  <line class="cls-2" x1="75.65" y1="401.38" x2="84.93" y2="401.36"/>
  <line class="cls-2" x1="75.6" y1="415.89" x2="84.88" y2="415.87"/>
  <line class="cls-1" x1="75.66" y1="367.81" x2="75.51" y2="431.28"/>
  <line class="cls-1" x1="85.22" y1="367.62" x2="85.5" y2="431.44"/>
  <path class="cls-1" d="M109.84,222.06v-66.55c0-.11.11-.75,0-.72-1.21.29-7.58.54-9.67.41"/>
  <path class="cls-1" d="M51.82,222.22l-1.48-66.5c0-.12-.12-1.14,0-1.12,3.48.51,8.92.42,8.92.42"/>
  <line class="cls-1" x1="75.8" y1="155.32" x2="75.64" y2="222.06"/>
  <line class="cls-1" x1="85.35" y1="155.11" x2="85.63" y2="222.23"/>
  <path class="cls-1" d="M110.36,293.38v-67.73c0-.11.11-.76,0-.74-1.21.29-7.58.55-9.67.42"/>
  <path class="cls-1" d="M52.34,293.54l-1.48-67.69c0-.12-.12-1.16,0-1.14,3.48.52,8.92.43,8.92.43"/>
  <path class="cls-1" d="M110.4,363.58v-66.33c0-.11.11-.75,0-.72-1.21.29-7.58.53-9.67.41"/>
  <path class="cls-1" d="M52.38,363.74l-1.48-66.29c0-.12-.12-1.14,0-1.12,3.48.51,8.92.42,8.92.42"/>
  <path class="cls-1" d="M109.52,432.21v-63.72c0-.11.11-.72,0-.69-1.21.27-7.58.51-9.67.39"/>
  <path class="cls-1" d="M51.51,432.36l-1.48-63.67c0-.11-.12-1.09,0-1.08,3.48.49,8.92.4,8.92.4"/>
  <path class="cls-1" d="M109.1,84.25V23.39c0-.11-.07-.52-.18-.49-1.21.29-7.41,1.31-9.49,1.19"/>
  <path class="cls-1" d="M50.97,84.18l-1.36-61.01c0-.12.08-.29.19-.26,3.83,1.08,8.67,1.23,8.67,1.23"/>
  <path class="cls-2" d="M75.63,37.99l10.18-.02-10.18.02Z"/>
  <line class="cls-2" x1="75.77" y1="51.86" x2="85.05" y2="51.84"/>
  <line class="cls-2" x1="75.63" y1="55.76" x2="84.91" y2="55.74"/>
  <line class="cls-2" x1="75.58" y1="69.34" x2="84.86" y2="69.33"/>
  <line class="cls-1" x1="74.71" y1="24.34" x2="76.43" y2="83.74"/>
  <line class="cls-1" x1="86.22" y1="24.15" x2="84.46" y2="83.9"/>
  <path class="cls-1" d="M51.49,431.82v.61c0,.11.06.52.17.49,1.21-.28,7.51-1.81,9.61-1.7"/>
  <path class="cls-1" d="M109.52,432.07v.67c.01.12-.07.31-.18.26-4.1-1.98-10.67-1.93-10.67-1.93"/>
  <path class="cls-1" d="M52.4,363.74v.61c0,.11.06.52.17.49,1.21-.28,7.55-1.05,9.65-.94"/>
  <path class="cls-1" d="M110.43,363.99v.67c.01.12-.07.29-.18.26-4.51-1.32-7.05-1.05-10.69-.9"/>
  <polyline class="cls-1" points="7.85 86.16 6.76 152.59 6.76 153.13 7.71 154.48 6.76 154.5 6.76 185.62 5.84 221.52 5.83 221.96 7.24 223.9 5.81 223.88 5.08 293.29 7.12 295.84 5.13 295.82 5.59 324.37 5.9 364.03 9.15 367.54 6.28 367.54 5.87 383.46 6.76 393.36 7.89 431.22"/>
  <line class="cls-1" x1="9.64" y1="24.14" x2="7.9" y2="84.01"/>
  <line class="cls-1" x1="152.12" y1="85.15" x2="151.44" y2="23.96"/>
  <polyline class="cls-1" points="151.13 431.15 152.34 368.04 149.64 368.03 152.41 364.42 153.62 297.37 151.13 297.34 153.67 294.87 153.71 225.5 152.13 225.48 153.71 223.48 153.71 189.16 153.13 184.66 153 163.26 153.33 157.54 153.22 155.11 151.93 155.11 153.08 153.58 152.16 89.01 152.13 85.8"/>
  <line class="cls-1" x1="7.43" y1="84.01" x2="152.13" y2="84.65"/>
  <line class="cls-1" x1="6.27" y1="152.77" x2="153.13" y2="153.28"/>
  <line class="cls-1" x1="5.48" y1="221.58" x2="154.06" y2="223.16"/>
  <line class="cls-1" x1="5.08" y1="292.97" x2="153.88" y2="294.56"/>
  <line class="cls-1" x1="109.9" y1="364.04" x2="152.42" y2="364.16"/>
  <line class="cls-1" x1="61.6" y1="363.9" x2="106.29" y2="364.03"/>
  <line class="cls-1" x1="5.53" y1="363.74" x2="52.91" y2="363.88"/>
  <line class="cls-1" x1="109.99" y1="431.03" x2="151.51" y2="430.86"/>
  <line class="cls-1" x1="60.76" y1="431.23" x2="98.86" y2="431.07"/>
  <line class="cls-1" x1="7.41" y1="431.44" x2="50.96" y2="431.27"/>
  <line class="cls-1" x1="9.14" y1="24.14" x2="50.02" y2="24.09"/>
  <line class="cls-1" x1="109.15" y1="24.12" x2="151.82" y2="24.06"/>
  <line class="cls-1" x1="57.86" y1="24.14" x2="100.25" y2="24.08"/>
  <line class="cls-1" x1="7.36" y1="85.66" x2="152.06" y2="86.3"/>
  <line class="cls-1" x1="7.86" y1="84.22" x2="8.95" y2="85.76"/>
  <line class="cls-1" x1="152.31" y1="84.75" x2="150.54" y2="86.19"/>
  <line class="cls-1" x1="6.27" y1="154.6" x2="153.13" y2="155.11"/>
  <line class="cls-1" x1="5.38" y1="223.92" x2="154.06" y2="225.5"/>
  <line class="cls-1" x1="5.08" y1="295.83" x2="153.87" y2="297.42"/>
  <line class="cls-1" x1="6.03" y1="367.62" x2="152.59" y2="368.04"/>
</svg>